<svg version="1.1" xmlns="http://www.w3.org/2000/svg" viewBox="0 0 388.8435565994214 236.53125" width="388.8435565994214" height="236.53125">
  <!-- svg-source:excalidraw -->
  
  <defs>
    <style class="style-fonts">
      @font-face {
        font-family: "Virgil";
        src: url("https://file%2B.vscode-resource.vscode-cdn.net/Users/dpb/.vscode/extensions/pomdtr.excalidraw-editor-3.7.1/public//dist/excalidraw-assets/Virgil.woff2");
      }
      @font-face {
        font-family: "Cascadia";
        src: url("https://file%2B.vscode-resource.vscode-cdn.net/Users/dpb/.vscode/extensions/pomdtr.excalidraw-editor-3.7.1/public//dist/excalidraw-assets/Cascadia.woff2");
      }
      @font-face {
        font-family: "Assistant";
        src: url("https://file%2B.vscode-resource.vscode-cdn.net/Users/dpb/.vscode/extensions/pomdtr.excalidraw-editor-3.7.1/public//dist/excalidraw-assets/Assistant-Regular.woff2");
      }
    </style>
    
  </defs>
  <rect x="0" y="0" width="388.8435565994214" height="236.53125" fill="#ffffff"></rect><g transform="translate(10 128.12890625) rotate(0 18.499984741210938 12.5)"><text x="0" y="0" font-family="Virgil, Segoe UI Emoji" font-size="20px" fill="#1e1e1e" text-anchor="start" style="white-space: pre;" direction="ltr" dominant-baseline="text-before-edge">Dev</text></g><g transform="translate(333.41798400878906 131.08203125) rotate(0 17.619979858398438 12.5)"><text x="0" y="0" font-family="Virgil, Segoe UI Emoji" font-size="20px" fill="#1e1e1e" text-anchor="start" style="white-space: pre;" direction="ltr" dominant-baseline="text-before-edge">Ops</text></g><g stroke-linecap="round"><g transform="translate(54.42862160942593 154.5774758135804) rotate(0 142.46928294528703 21.080402718209797)"><path d="M0.69 0.25 C23.83 7.4, 90.7 41.89, 137.97 42.4 C185.24 42.92, 259.69 9.89, 284.32 3.36 M-0.4 -0.66 C22.71 6.15, 90.11 39.54, 137.38 40.41 C184.65 41.27, 258.38 10.57, 283.22 4.53" stroke="#1971c2" stroke-width="2" fill="none"></path></g><g transform="translate(54.42862160942593 154.5774758135804) rotate(0 142.46928294528703 21.080402718209797)"><path d="M259.43 22.8 C265.42 19.6, 270.91 13.18, 283.22 4.53 M259.43 22.8 C265.58 17.13, 271.67 13.55, 283.22 4.53" stroke="#1971c2" stroke-width="2" fill="none"></path></g><g transform="translate(54.42862160942593 154.5774758135804) rotate(0 142.46928294528703 21.080402718209797)"><path d="M253.25 3.23 C260.59 4.51, 267.5 2.62, 283.22 4.53 M253.25 3.23 C261.24 2.99, 269.03 4.81, 283.22 4.53" stroke="#1971c2" stroke-width="2" fill="none"></path></g></g><mask></mask><g stroke-linecap="round"><g transform="translate(377.6328125 114.06640625) rotate(0 -170.89810351638548 -35.09765625)"><path d="M-0.65 -1.09 C-28.63 -13.03, -111.57 -71.64, -168.43 -71.51 C-225.28 -71.37, -312.96 -12.34, -341.78 -0.28 M1.21 0.95 C-26.92 -10.89, -112.31 -70.56, -169.6 -70.59 C-226.89 -70.61, -313.99 -10.73, -342.54 0.81" stroke="#f08c00" stroke-width="2" fill="none"></path></g><g transform="translate(377.6328125 114.06640625) rotate(0 -170.89810351638548 -35.09765625)"><path d="M-322.34 -21.37 C-329.28 -16.55, -334.56 -10.17, -342.54 0.81 M-322.34 -21.37 C-327.18 -15.1, -333.02 -8.7, -342.54 0.81" stroke="#f08c00" stroke-width="2" fill="none"></path></g><g transform="translate(377.6328125 114.06640625) rotate(0 -170.89810351638548 -35.09765625)"><path d="M-312.81 -3.19 C-322.19 -3.05, -329.89 -1.29, -342.54 0.81 M-312.81 -3.19 C-320.24 -1.68, -328.61 -0.1, -342.54 0.81" stroke="#f08c00" stroke-width="2" fill="none"></path></g></g><mask></mask><g stroke-linecap="round"><g transform="translate(94.60050912018835 134.24965561975716) rotate(0 10.651998476297166 -13.216206847247008)"><path d="M-1.1 -0.16 C3.23 -0.11, 21.07 3.59, 25.48 -0.54 C29.88 -4.67, 30.51 -20.58, 25.33 -24.94 C20.15 -29.3, -1.62 -30.62, -5.6 -26.71 C-9.58 -22.8, 0.34 -5.63, 1.45 -1.49 M0.53 -1.28 C5.28 -0.98, 23.8 4.64, 27.79 0.88 C31.78 -2.89, 30.03 -19.44, 24.45 -23.88 C18.87 -28.32, -1.73 -29.54, -5.71 -25.76 C-9.7 -21.97, -0.29 -4.91, 0.53 -1.15" stroke="#2f9e44" stroke-width="2" fill="none"></path></g><g transform="translate(94.60050912018835 134.24965561975716) rotate(0 10.651998476297166 -13.216206847247008)"><path d="M-7.95 -10.74 C-5.98 -8.97, -3.85 -5.9, 0.53 -1.15 M-7.95 -10.74 C-5.24 -8.29, -3.23 -6.01, 0.53 -1.15" stroke="#2f9e44" stroke-width="2" fill="none"></path></g><g transform="translate(94.60050912018835 134.24965561975716) rotate(0 10.651998476297166 -13.216206847247008)"><path d="M0.2 -13.95 C0.03 -11.42, 0.04 -7.51, 0.53 -1.15 M0.2 -13.95 C0.78 -10.68, 0.67 -7.57, 0.53 -1.15" stroke="#2f9e44" stroke-width="2" fill="none"></path></g></g><mask></mask><g stroke-linecap="round"><g transform="translate(140.3277478577093 135.7177583364478) rotate(0 10.651998476297166 -13.216206847247008)"><path d="M0.17 -1.07 C4.35 -0.92, 21.37 4, 25.65 0.13 C29.93 -3.74, 31.11 -20.07, 25.86 -24.29 C20.6 -28.52, -1.48 -28.91, -5.86 -25.23 C-10.24 -21.56, -1.57 -6.03, -0.43 -2.26 M-1.2 0.98 C3.33 0.84, 23.65 2.23, 28.06 -1.75 C32.47 -5.73, 30.95 -18.66, 25.26 -22.89 C19.56 -27.13, -2.11 -30.59, -6.1 -27.16 C-10.09 -23.73, 0.46 -6.75, 1.32 -2.33" stroke="#2f9e44" stroke-width="2" fill="none"></path></g><g transform="translate(140.3277478577093 135.7177583364478) rotate(0 10.651998476297166 -13.216206847247008)"><path d="M-7.3 -11.8 C-5.51 -9.14, -0.9 -4.89, 1.32 -2.33 M-7.3 -11.8 C-5.12 -9.38, -1.67 -6.59, 1.32 -2.33" stroke="#2f9e44" stroke-width="2" fill="none"></path></g><g transform="translate(140.3277478577093 135.7177583364478) rotate(0 10.651998476297166 -13.216206847247008)"><path d="M0.8 -15.12 C-0.25 -11.3, 1.55 -5.89, 1.32 -2.33 M0.8 -15.12 C0.42 -11.58, 1.33 -7.75, 1.32 -2.33" stroke="#2f9e44" stroke-width="2" fill="none"></path></g></g><mask></mask><g stroke-linecap="round"><g transform="translate(185.1480603577093 138.1552583364478) rotate(0 10.651998476297166 -13.216206847247008)"><path d="M0.32 0.16 C4.63 0.23, 21.23 5.13, 25.29 0.88 C29.36 -3.37, 29.64 -20.58, 24.7 -25.33 C19.76 -30.08, -0.44 -31.63, -4.35 -27.63 C-8.27 -23.63, 0.26 -5.73, 1.2 -1.33 M-0.97 -0.8 C3.76 -1.07, 22.83 3.33, 27.51 -0.61 C32.2 -4.56, 32.38 -20.05, 27.16 -24.47 C21.94 -28.89, 0.7 -31.08, -3.81 -27.16 C-8.31 -23.23, -0.4 -5.08, 0.14 -0.91" stroke="#2f9e44" stroke-width="2" fill="none"></path></g><g transform="translate(185.1480603577093 138.1552583364478) rotate(0 10.651998476297166 -13.216206847247008)"><path d="M-7.39 -11.27 C-5.28 -9.68, -2.28 -6.96, 0.14 -0.91 M-7.39 -11.27 C-5.2 -8.81, -3.46 -6.4, 0.14 -0.91" stroke="#2f9e44" stroke-width="2" fill="none"></path></g><g transform="translate(185.1480603577093 138.1552583364478) rotate(0 10.651998476297166 -13.216206847247008)"><path d="M1.03 -13.68 C1.03 -11.47, 1.91 -8.14, 0.14 -0.91 M1.03 -13.68 C1.32 -10.76, 1.14 -7.8, 0.14 -0.91" stroke="#2f9e44" stroke-width="2" fill="none"></path></g></g><mask></mask><g stroke-linecap="round"><g transform="translate(227.6871228577093 138.6669770864478) rotate(0 10.651998476297166 -13.216206847247008)"><path d="M-0.86 1.13 C3.34 1.08, 21.74 4.23, 26.06 -0.15 C30.39 -4.53, 30.17 -20.89, 25.09 -25.13 C20.01 -29.37, -0.24 -29.55, -4.42 -25.6 C-8.59 -21.65, -0.65 -5.38, 0.03 -1.45 M0.89 0.69 C4.84 0.84, 21.16 5.61, 25.03 1.47 C28.89 -2.67, 28.91 -19.3, 24.09 -24.17 C19.27 -29.03, -0.23 -31.56, -3.9 -27.72 C-7.58 -23.87, 1.26 -5.76, 2.03 -1.09" stroke="#2f9e44" stroke-width="2" fill="none"></path></g><g transform="translate(227.6871228577093 138.6669770864478) rotate(0 10.651998476297166 -13.216206847247008)"><path d="M-5.87 -11.16 C-1.72 -7.55, 0.17 -4.12, 2.03 -1.09 M-5.87 -11.16 C-4.1 -8.8, -2.35 -6.65, 2.03 -1.09" stroke="#2f9e44" stroke-width="2" fill="none"></path></g><g transform="translate(227.6871228577093 138.6669770864478) rotate(0 10.651998476297166 -13.216206847247008)"><path d="M2.45 -13.89 C3.52 -9.33, 2.33 -4.89, 2.03 -1.09 M2.45 -13.89 C2.21 -10.8, 1.93 -7.99, 2.03 -1.09" stroke="#2f9e44" stroke-width="2" fill="none"></path></g></g><mask></mask><g stroke-linecap="round"><g transform="translate(266.82384160770926 139.8857270864478) rotate(0 10.651998476297138 -13.216206847247008)"><path d="M-0.45 -0.68 C4.04 -0.62, 22.47 4.49, 26.74 0.52 C31.01 -3.46, 30.57 -19.92, 25.17 -24.52 C19.78 -29.12, -1.3 -30.89, -5.63 -27.06 C-9.95 -23.23, -1.85 -5.84, -0.77 -1.53 M1.52 1.58 C5.9 1.29, 22.27 2.97, 26.06 -1.17 C29.84 -5.3, 29.51 -19.05, 24.21 -23.23 C18.91 -27.42, -1.85 -29.96, -5.75 -26.29 C-9.65 -22.62, 0.03 -5.23, 0.8 -1.22" stroke="#2f9e44" stroke-width="2" fill="none"></path></g><g transform="translate(266.82384160770926 139.8857270864478) rotate(0 10.651998476297138 -13.216206847247008)"><path d="M-7.6 -10.89 C-5.91 -7.55, -1.89 -5.72, 0.8 -1.22 M-7.6 -10.89 C-5.81 -8.08, -2.47 -5.08, 0.8 -1.22" stroke="#2f9e44" stroke-width="2" fill="none"></path></g><g transform="translate(266.82384160770926 139.8857270864478) rotate(0 10.651998476297138 -13.216206847247008)"><path d="M0.58 -14.02 C-0.06 -9.82, 1.61 -7.09, 0.8 -1.22 M0.58 -14.02 C-0.06 -10.33, 0.87 -6.41, 0.8 -1.22" stroke="#2f9e44" stroke-width="2" fill="none"></path></g></g><mask></mask><g transform="translate(164.55078125 201.53125) rotate(0 28.389984130859375 12.5)"><text x="0" y="0" font-family="Virgil, Segoe UI Emoji" font-size="20px" fill="#1971c2" text-anchor="start" style="white-space: pre;" direction="ltr" dominant-baseline="text-before-edge">1. Weg</text></g><g transform="translate(171.5625 10) rotate(0 32.79998016357422 12.5)"><text x="0" y="0" font-family="Virgil, Segoe UI Emoji" font-size="20px" fill="#f08c00" text-anchor="start" style="white-space: pre;" direction="ltr" dominant-baseline="text-before-edge">2. Weg</text></g><g transform="translate(171.63671875 85.49751183405084) rotate(0 25.24388885498047 9.71218158297458)"><text x="0" y="0" font-family="Virgil, Segoe UI Emoji" font-size="15.539490532759324px" fill="#2f9e44" text-anchor="start" style="white-space: pre;" direction="ltr" dominant-baseline="text-before-edge">3. Weg</text></g></svg>